<svg width="18" height="16" viewBox="0 0 18 16" fill="none" xmlns="http://www.w3.org/2000/svg">
<path d="M7.29288 15.7069C7.48838 15.9024 7.74388 15.9999 7.99988 15.9999C8.25588 15.9999 8.51138 15.9024 8.70688 15.7069C9.09738 15.3164 9.09738 14.6834 8.70688 14.2929L3.41388 8.99987H16.9999C17.5519 8.99987 17.9999 8.55187 17.9999 7.99987C17.9999 7.44787 17.5519 6.99987 16.9999 6.99987H3.41388L8.70688 1.70687C9.09738 1.31637 9.09738 0.683375 8.70688 0.292875C8.31638 -0.097625 7.68338 -0.097625 7.29288 0.292875L0.292875 7.29287C-0.097625 7.68337 -0.097625 8.31637 0.292875 8.70687L7.29288 15.7069Z" fill="#FFFFFF"/>
</svg>
